<?xml version="1.0" encoding="iso-8859-1"?>
<!-- Generator: Adobe Illustrator 19.0.0, SVG Export Plug-In . SVG Version: 6.00 Build 0)  -->
<svg version="1.1" id="Layer_1" xmlns="http://www.w3.org/2000/svg" xmlns:xlink="http://www.w3.org/1999/xlink" x="0px" y="0px"
	 viewBox="0 0 512.001 512.001" style="enable-background:new 0 0 512.001 512.001;" xml:space="preserve">
<g>
	<g>
		<polygon fill="#ffffff" points="410.861,335.212 410.861,295.066 379.514,295.066 379.514,335.212 341.372,335.212 341.372,366.559 
			379.514,366.559 379.514,406.705 410.861,406.705 410.861,366.559 449.004,366.559 449.004,335.212 		"/>
	</g>
</g>
<g>
	<g>
		<path fill="#ffffff" d="M493.389,288.399c-11.844-18.459-28.532-33.233-48.26-42.723l-0.003,0c-0.601-0.289-1.214-0.557-1.822-0.835V132.218
			v-15.673V60.736H230.9l-10.32-18.685H0v338.754h279.702c0.909,3.613,1.981,7.189,3.229,10.699
			c5.951,16.737,15.801,32.172,28.488,44.637c22.192,21.803,51.541,33.81,82.643,33.81c65.031,0,117.939-52.907,117.939-117.939
			C512,329.374,505.564,307.377,493.389,288.399z M411.957,92.083v24.462h-150.23l-13.512-24.462H411.957z M306.441,273.09
			c-0.391,0.435-0.785,0.866-1.169,1.306c-0.303,0.347-0.598,0.699-0.896,1.049c-0.374,0.438-0.749,0.875-1.117,1.317
			c-0.296,0.357-0.584,0.721-0.876,1.081c-0.358,0.443-0.719,0.885-1.07,1.333c-0.289,0.368-0.57,0.741-0.855,1.112
			c-0.343,0.448-0.688,0.894-1.024,1.347c-0.281,0.377-0.554,0.76-0.83,1.14c-0.329,0.455-0.66,0.908-0.983,1.367
			c-0.27,0.383-0.532,0.77-0.797,1.156c-0.318,0.464-0.637,0.927-0.949,1.395c-0.259,0.389-0.512,0.783-0.766,1.176
			c-0.305,0.47-0.61,0.94-0.908,1.415c-0.25,0.397-0.493,0.797-0.738,1.197c-0.292,0.477-0.584,0.955-0.868,1.436
			c-0.239,0.403-0.472,0.81-0.706,1.216c-0.278,0.483-0.556,0.967-0.828,1.453c-0.229,0.411-0.452,0.824-0.677,1.238
			c-0.265,0.49-0.53,0.979-0.788,1.472c-0.217,0.416-0.43,0.834-0.644,1.252c-0.253,0.496-0.504,0.994-0.749,1.493
			c-0.207,0.421-0.41,0.844-0.611,1.268c-0.239,0.503-0.477,1.006-0.709,1.513c-0.196,0.426-0.388,0.854-0.578,1.282
			c-0.227,0.509-0.45,1.019-0.669,1.531c-0.185,0.432-0.366,0.865-0.545,1.299c-0.213,0.515-0.423,1.03-0.629,1.549
			c-0.172,0.436-0.343,0.871-0.51,1.309c-0.2,0.521-0.397,1.044-0.589,1.568c-0.161,0.439-0.32,0.879-0.475,1.32
			c-0.187,0.528-0.37,1.056-0.55,1.587c-0.149,0.442-0.297,0.885-0.441,1.329c-0.173,0.533-0.342,1.068-0.508,1.604
			c-0.138,0.446-0.274,0.892-0.406,1.341c-0.159,0.537-0.313,1.076-0.465,1.615c-0.126,0.451-0.252,0.903-0.373,1.355
			c-0.144,0.54-0.284,1.083-0.421,1.625c-0.115,0.456-0.23,0.912-0.34,1.37c-0.131,0.543-0.255,1.087-0.378,1.633
			c-0.103,0.461-0.207,0.922-0.305,1.383c-0.116,0.546-0.226,1.095-0.334,1.645c-0.092,0.463-0.183,0.927-0.27,1.391
			c-0.102,0.552-0.197,1.106-0.292,1.659c-0.079,0.465-0.159,0.929-0.233,1.395c-0.088,0.555-0.168,1.112-0.248,1.668
			c-0.067,0.469-0.136,0.938-0.197,1.41c-0.073,0.557-0.138,1.114-0.203,1.672c-0.055,0.472-0.112,0.944-0.161,1.417
			c-0.059,0.56-0.109,1.122-0.159,1.684c-0.043,0.473-0.087,0.947-0.124,1.421c-0.044,0.562-0.078,1.125-0.114,1.69
			c-0.03,0.478-0.063,0.954-0.087,1.432c-0.029,0.563-0.048,1.127-0.068,1.692c-0.018,0.48-0.039,0.959-0.05,1.44
			c-0.002,0.108-0.009,0.214-0.011,0.322H31.347V73.398h170.736l41.148,74.493h168.726v87.535c-0.592-0.091-1.189-0.156-1.783-0.238
			c-0.647-0.089-1.294-0.181-1.943-0.258c-0.951-0.114-1.904-0.207-2.859-0.299c-0.614-0.059-1.229-0.125-1.844-0.174
			c-1.053-0.084-2.109-0.142-3.166-0.197c-0.52-0.027-1.039-0.068-1.559-0.089c-1.578-0.063-3.159-0.098-4.744-0.098
			c-15.367,0-30.333,2.924-44.482,8.689c-11.841,4.826-22.767,11.515-32.475,19.88c-0.253,0.217-0.504,0.439-0.799,0.699
			c-0.788,0.692-1.566,1.393-2.333,2.103c-0.253,0.234-0.497,0.474-0.747,0.709c-0.51,0.481-1.022,0.96-1.522,1.449
			c-0.295,0.288-0.582,0.583-0.874,0.875c-0.446,0.444-0.894,0.887-1.332,1.337c-0.308,0.318-0.608,0.642-0.912,0.962
			c-0.412,0.434-0.827,0.864-1.231,1.303C307.044,272.413,306.745,272.754,306.441,273.09z M394.061,438.604
			c-22.833,0-44.381-8.816-60.673-24.824c-9.318-9.155-16.552-20.489-20.921-32.777c-2.053-5.773-3.489-11.77-4.272-17.829
			l-0.036-0.271c-0.067-0.515-0.135-1.03-0.191-1.558c-0.333-3.113-0.502-6.253-0.502-9.333c0-24.92,10.756-48.652,29.511-65.11
			l0.588-0.515c7.13-6.144,15.152-11.056,23.84-14.597c9.079-3.699,18.624-5.803,28.434-6.27c1.401-0.067,2.808-0.1,4.219-0.1
			c3.651,0,7.278,0.226,10.866,0.676c5.98,0.75,11.854,2.122,17.556,4.104l0.023,0.008c2.179,0.759,4.322,1.599,6.37,2.499
			c0.895,0.394,1.787,0.796,2.667,1.219c29.834,14.352,49.11,45.002,49.11,78.085C480.653,399.759,441.808,438.604,394.061,438.604z
			"/>
	</g>
</g>
<g>
</g>
<g>
</g>
<g>
</g>
<g>
</g>
<g>
</g>
<g>
</g>
<g>
</g>
<g>
</g>
<g>
</g>
<g>
</g>
<g>
</g>
<g>
</g>
<g>
</g>
<g>
</g>
<g>
</g>
</svg>
