<?xml version="1.0" standalone="no"?>
<!DOCTYPE svg PUBLIC "-//W3C//DTD SVG 20010904//EN"
 "http://www.w3.org/TR/2001/REC-SVG-20010904/DTD/svg10.dtd">
<svg version="1.0" xmlns="http://www.w3.org/2000/svg"
 width="300.000000pt" height="300.000000pt" viewBox="0 0 300.000000 300.000000"
 preserveAspectRatio="xMidYMid meet">

<g transform="translate(0.000000,300.000000) scale(0.100000,-0.100000)"
fill="#000000" stroke="none">
<path d="M746 2698 c-19 -27 -22 -123 -3 -135 6 -4 318 -10 691 -13 774 -6
717 2 674 -91 -56 -117 -68 -146 -68 -155 0 -5 -9 -27 -20 -49 -46 -94 -110
-236 -110 -246 0 -6 -20 -52 -44 -103 -24 -51 -47 -102 -50 -114 -16 -48 -58
-110 -79 -116 -12 -3 -186 -6 -388 -6 -270 0 -368 -3 -377 -12 -16 -16 -16
-134 1 -145 6 -4 165 -10 352 -13 321 -5 340 -6 343 -24 2 -10 -3 -32 -11 -50
-8 -17 -36 -80 -62 -141 -57 -130 -78 -180 -104 -237 -10 -24 -36 -81 -56
-128 -20 -47 -43 -98 -50 -115 -8 -16 -37 -84 -65 -150 -28 -66 -60 -138 -70
-160 -145 -320 -143 -308 -39 -313 35 -2 73 -1 85 2 20 5 64 65 64 87 0 6 12
36 26 67 42 90 69 153 91 207 40 98 124 290 138 318 8 16 15 34 15 40 0 6 8
29 19 51 62 133 81 177 81 182 0 4 9 25 19 48 31 66 100 224 138 316 60 147
63 154 80 185 13 25 46 102 118 280 6 17 24 57 39 90 46 99 56 123 56 130 0 8
16 45 66 150 50 106 74 164 74 177 0 8 8 25 17 38 11 16 17 44 18 80 0 100 92
90 -804 90 l-790 0 -15 -22z"/>
</g>
</svg>
